<?xml version="1.0" encoding="iso-8859-1"?>
<!-- Generator: Adobe Illustrator 19.0.0, SVG Export Plug-In . SVG Version: 6.00 Build 0)  -->
<svg version="1.1" id="Capa_1" xmlns="http://www.w3.org/2000/svg" xmlns:xlink="http://www.w3.org/1999/xlink" x="0px" y="0px"
	 viewBox="0 0 512 512" style="enable-background:new 0 0 512 512;" xml:space="preserve">
<path style="fill:#E6733C;" d="M138.75,31.875l-8.701,21.301l-38.099,38.1l-38.101,37.798l-21,9.001l-10.8-10.801
	c-29.399-29.099-29.399-76.8,0-105.899c28.5-28.5,77.699-28.5,106.199,0L138.75,31.875z"/>
<path style="fill:#EC9046;" d="M91.95,91.276l-38.101,37.798l-21,9.001l-10.8-10.801c-29.399-29.099-29.399-76.8,0-105.899
	L91.95,91.276z"/>
<path style="fill:#B757D1;" d="M422,180c-49.629,0-90-40.371-90-90s40.371-90,90-90s90,40.371,90,90S471.629,180,422,180z"/>
<path style="fill:#4DA6FF;" d="M165,512H15c-8.291,0-15-6.709-15-15V347c0-8.291,6.709-15,15-15h150c8.291,0,15,6.709,15,15v150
	C180,505.291,173.291,512,165,512z"/>
<polygon style="fill:#F29737;" points="425.812,319.621 418.61,346.021 383.511,383.221 349.012,419.822 321.41,427.322 
	96.449,201.676 105.15,180.375 143.249,142.274 181.049,104.476 202.35,95.474 "/>
<polygon style="fill:#F6B73C;" points="383.511,383.221 349.012,419.822 321.41,427.322 96.449,201.676 105.15,180.375 
	143.249,142.274 "/>
<path style="fill:#FFBF66;" d="M469.843,395.565l-21.233-49.544c-1.5-3.3-2.098-5.7-4.499-8.101l-18.3-18.3
	c-26.102,6.601-49.2,20.4-67.202,38.701c-18.3,18.6-31.5,42.599-37.2,69l16.5,16.5c2.701,2.999,6.901,4.2,11.102,6l46.546,20.051
	L469.843,395.565z"/>
<path style="fill:#FFD966;" d="M395.558,469.873l-46.546-20.051c-4.2-1.8-8.401-3.001-11.102-6l-16.5-16.5
	c5.7-26.4,18.9-50.4,37.2-69l72.902,72.9L395.558,469.873z"/>
<polygon style="fill:#E0E4EC;" points="202.35,95.474 149.249,148.575 96.449,201.676 32.849,138.076 85.649,84.975 138.75,31.875 
	"/>
<polygon style="fill:#D1D7E3;" points="149.249,148.575 96.449,201.676 32.849,138.076 85.649,84.975 "/>
<path style="fill:#66728B;" d="M469.827,395.573c-36.109,9.683-64.595,38.178-74.265,74.292
	c36.414,15.635,75.734,32.442,95.649,40.856c5.999,2.701,12.299,0.901,16.5-3.3c3.9-3.9,5.7-10.201,2.999-16.5
	C484.935,430.871,483.218,426.954,469.827,395.573z"/>
<path style="fill:#6F7D96;" d="M422.934,422.646c-12.925,12.875-22.517,29.088-27.372,47.219
	c36.414,15.635,75.734,32.442,95.649,40.856c5.999,2.701,12.299,0.901,16.5-3.3L422.934,422.646z"/>
<g>
</g>
<g>
</g>
<g>
</g>
<g>
</g>
<g>
</g>
<g>
</g>
<g>
</g>
<g>
</g>
<g>
</g>
<g>
</g>
<g>
</g>
<g>
</g>
<g>
</g>
<g>
</g>
<g>
</g>
</svg>
